<?xml version="1.0" encoding="utf-8"?>
<!-- Generator: Adobe Illustrator 21.0.0, SVG Export Plug-In . SVG Version: 6.00 Build 0)  -->
<svg version="1.1" id="Layer_1" xmlns="http://www.w3.org/2000/svg" xmlns:xlink="http://www.w3.org/1999/xlink" x="0px" y="0px"
	 viewBox="0 0 100.8 114.4" style="enable-background:new 0 0 100.8 114.4;" xml:space="preserve">
<style type="text/css">
	.st0{fill:#ED1A39;}
	.st1{fill:none;stroke:#FFFFFF;stroke-width:1.417;stroke-miterlimit:10;}
	.st2{fill:#FFFFFF;}
</style>
<g>
	<path class="st0" d="M95.7,32.6c-1.4-8.1-3.1-15.6-4.8-21.2c-2.8-9.3-4.1-9.1-4.9-8.9l-0.3,0.1C58.4,7.3,31.2,12.2,3.9,17
		C3.2,17.1,1.8,17.3,2.4,27c0.3,5.8,1.3,13.5,2.7,21.6C6.4,56.2,8,63.3,9.6,68.9c-3.8,4.3-4.8,9.9-4.1,13.4c0.2,0.8,0.3,1.6,0.5,2.5
		c1,4.7,2,10.1,0.8,13.8c-1.3,3.9-2.8,9.4-0.6,12c1,1.2,2.7,1.6,5,1.2c2.8-0.5,4.6-1.7,5.4-3.5c1.4-3.3-0.6-7.7-2.6-10.8
		c-3.3-5.2-5.9-12.8-4.3-15.3c1.4-2.2,2.5-2.9,7.2-3.8l80.1-14.1l0.1,0l0.1-0.1c-0.1,0.1-0.3,0.1-0.4,0.1
		C101,63.6,96.3,35.8,95.7,32.6z"/>
	<path class="st1" d="M95.7,32.6c-1.4-8.1-3.1-15.6-4.8-21.2c-2.8-9.3-4.1-9.1-4.9-8.9l-0.3,0.1C58.4,7.3,31.2,12.2,3.9,17
		C3.2,17.1,1.8,17.3,2.4,27c0.3,5.8,1.3,13.5,2.7,21.6C6.4,56.2,8,63.3,9.6,68.9c-3.8,4.3-4.8,9.9-4.1,13.4c0.2,0.8,0.3,1.6,0.5,2.5
		c1,4.7,2,10.1,0.8,13.8c-1.3,3.9-2.8,9.4-0.6,12c1,1.2,2.7,1.6,5,1.2c2.8-0.5,4.6-1.7,5.4-3.5c1.4-3.3-0.6-7.7-2.6-10.8
		c-3.3-5.2-5.9-12.8-4.3-15.3c1.4-2.2,2.5-2.9,7.2-3.8l80.1-14.1l0.1,0l0.1-0.1c-0.1,0.1-0.3,0.1-0.4,0.1
		C101,63.6,96.3,35.8,95.7,32.6z"/>
	<polygon class="st2" points="20.4,43.5 25.1,33 19.1,34.1 18.5,30.8 29.3,28.9 29.9,32 25.2,42.5 31.5,41.4 32.1,44.7 21,46.6 	"/>
	<path class="st2" d="M39.3,41c1.6-0.3,1.9-2,1.2-5.9c-0.7-4-1.5-5.5-3.2-5.2c-2,0.4-1.8,2.7-1.2,5.9C36.7,39,37.3,41.3,39.3,41
		 M36.8,27.1c4.8-0.9,6.7,1.7,7.7,7.2c1,5.4-0.1,8.6-4.8,9.4c-4.8,0.9-6.7-1.7-7.7-7.2C31.1,31.1,32.2,27.9,36.8,27.1"/>
	<path class="st2" d="M45.2,26.1l3.9-0.7l0.4,2.1l0.1,0c0.6-1.7,1.5-2.9,3.2-3.2c0.2,0,0.5-0.1,0.7-0.1l0.7,3.9
		c-0.4,0-0.8,0.1-1.3,0.2c-1.4,0.2-2.9,1.3-2.5,3.4l1,5.4l-4.1,0.7L45.2,26.1z"/>
	<polygon class="st2" points="58.3,18.4 60.2,29.5 60.3,29.5 63.3,22.9 67.8,22.1 64.4,29.1 71.3,37.8 66.8,38.6 62.3,32.6 
		61.2,34.8 62,39.4 57.9,40.1 54.2,19.1 	"/>
	<path class="st2" d="M78.4,28.4c-0.5,0.5-1.1,0.9-1.6,1.1c-1.6,0.6-2.1,1.5-1.8,3c0.2,1.2,0.8,2.1,1.9,1.9c1.1-0.2,2.4-1.1,2.1-2.9
		L78.4,28.4z M70.4,26.6l-0.1-0.4c-0.6-3.6,1.6-5.3,4.7-5.9c4.8-0.8,6.1,1,6.6,3.8l1.5,8.3c0.3,1.5,0.5,2.1,1,3l-3.9,0.7
		c-0.4-0.5-0.6-1-0.8-1.6l-0.1,0c-0.7,1.8-1.7,2.4-3.7,2.8c-2.8,0.5-4.2-1.7-4.6-3.9c-0.5-3,0.5-4.4,3.1-5.6l2.2-1
		c1.2-0.5,1.5-1.1,1.3-2.1c-0.2-1.2-0.8-1.8-2.2-1.6c-1.3,0.2-1.7,1.1-1.5,2.4l0.1,0.4L70.4,26.6z"/>
	<path class="st2" d="M29.6,54.9c-0.3-1.5-0.9-3.1-2.4-2.9c-2,0.4-2,2.2-1.4,5.8c0.7,3.9,1.4,5.5,3.1,5.1c1.4-0.2,1.8-1.5,1.3-4.1
		l3.9-0.7c0.7,4.1-0.6,6.8-4.9,7.5c-4.1,0.7-6.4-0.9-7.5-7.3c-1.1-6.5,1.2-8.8,4.9-9.4c3.8-0.7,6.1,1.4,6.7,5.1L29.6,54.9z"/>
	<path class="st2" d="M42.6,60.6c1.6-0.3,1.9-2,1.2-5.9c-0.7-4-1.5-5.5-3.2-5.2c-2,0.4-1.8,2.7-1.2,5.9C40,58.6,40.6,60.9,42.6,60.6
		 M40.2,46.7c4.8-0.9,6.7,1.7,7.7,7.2c1,5.4-0.2,8.6-4.8,9.4c-4.8,0.9-6.7-1.7-7.7-7.2C34.5,50.7,35.6,47.5,40.2,46.7"/>
	<rect x="49.6" y="39.9" transform="matrix(0.9847 -0.1741 0.1741 0.9847 -8.0173 9.7643)" class="st2" width="4.1" height="21.3"/>
	<path class="st2" d="M63.6,56.9c1.6-0.3,1.9-2,1.2-5.9c-0.7-4-1.5-5.5-3.2-5.2c-2,0.4-1.8,2.7-1.2,5.9C61,54.9,61.6,57.2,63.6,56.9
		 M61.1,43c4.8-0.9,6.7,1.7,7.7,7.2c1,5.4-0.1,8.6-4.8,9.4c-4.8,0.9-6.7-1.7-7.7-7.2C55.4,47,56.5,43.8,61.1,43"/>
	<path class="st2" d="M69.5,41.9l3.9-0.7l0.4,2.1l0.1,0c0.6-1.7,1.5-2.9,3.2-3.2c0.2,0,0.5-0.1,0.7-0.1l0.7,3.9
		c-0.4,0-0.8,0.1-1.3,0.2c-1.4,0.2-2.9,1.3-2.5,3.4l1.7,9.5l-4.1,0.7L69.5,41.9z"/>
</g>
</svg>
