<?xml version="1.0" standalone="no"?>
<!DOCTYPE svg PUBLIC "-//W3C//DTD SVG 20010904//EN"
 "http://www.w3.org/TR/2001/REC-SVG-20010904/DTD/svg10.dtd">
<svg version="1.0" xmlns="http://www.w3.org/2000/svg"
 width="260.000000pt" height="260.000000pt" viewBox="0 0 260.000000 260.000000"
 preserveAspectRatio="xMidYMid meet">
<metadata>
Created by potrace 1.14, written by Peter Selinger 2001-2017
</metadata>
<g transform="translate(0.000000,260.000000) scale(0.100000,-0.100000)"
fill="#000000" stroke="none">
<path d="M1726 1659 c-52 -41 -56 -99 -7 -99 28 0 72 38 84 73 17 47 -30 63
-77 26z"/>
<path d="M263 1640 c-184 -37 -256 -218 -162 -408 56 -115 121 -168 294 -242
21 -9 98 -24 178 -35 42 -6 47 -4 47 14 0 11 -5 23 -11 26 -7 5 -8 48 -4 134
6 106 10 129 26 143 37 32 24 45 -58 60 -74 13 -78 13 -81 -5 -2 -10 4 -24 13
-30 14 -11 15 -24 4 -131 l-12 -118 -38 5 c-103 14 -220 100 -265 196 -49 103
-43 208 15 274 57 66 216 61 308 -9 29 -22 33 -30 28 -53 -10 -48 14 -54 68
-19 26 17 47 36 47 43 0 21 -80 85 -146 117 -34 16 -88 33 -120 38 -66 11 -73
11 -131 0z"/>
<path d="M2397 1591 c-61 -45 -130 -86 -215 -128 -2 0 3 -14 11 -30 8 -15 18
-47 22 -70 6 -37 10 -43 31 -43 54 0 165 33 208 62 72 47 89 74 84 133 -5 54
-32 120 -52 128 -7 3 -47 -20 -89 -52z m91 -36 c-1 -2 -41 -22 -87 -44 -104
-50 -149 -55 -55 -6 38 20 82 46 99 59 25 20 31 21 38 9 5 -8 7 -16 5 -18z"/>
<path d="M1203 1557 c-41 -8 -53 -14 -53 -28 0 -11 7 -19 16 -19 15 0 16 -24
10 -267 -6 -214 -10 -270 -22 -279 -8 -6 -14 -19 -14 -28 0 -19 3 -18 149 11
187 37 287 109 317 227 7 28 6 28 -27 21 -61 -12 -66 -15 -95 -60 -33 -53 -84
-91 -150 -111 -26 -8 -51 -14 -55 -14 -5 0 -7 57 -5 128 l3 127 33 23 c70 47
140 52 179 13 16 -16 24 -17 65 -7 55 13 58 26 12 72 -32 32 -38 34 -97 34
-45 0 -82 -8 -124 -25 -33 -14 -62 -25 -65 -25 -3 0 -4 49 -2 110 3 86 0 110
-10 109 -7 -1 -37 -6 -65 -12z"/>
<path d="M1713 1488 c-38 -15 -53 -26 -53 -39 0 -11 7 -19 16 -19 14 0 16 -8
10 -52 -3 -29 -9 -96 -12 -148 -7 -131 -11 -154 -34 -180 -20 -23 -26 -40 -14
-40 4 0 42 12 85 27 60 20 79 31 79 45 0 10 -5 18 -11 18 -9 0 -10 30 -5 108
21 345 28 314 -61 280z"/>
<path d="M810 1378 c-53 -12 -60 -20 -60 -70 0 -46 18 -50 61 -14 56 47 160
40 189 -13 13 -26 10 -27 -79 -35 -117 -11 -211 -75 -223 -152 -4 -28 0 -29
54 -16 31 8 49 18 53 31 9 29 62 58 129 70 33 6 61 11 63 11 1 0 1 -30 -1 -67
l-3 -68 -43 -22 c-52 -28 -100 -29 -131 -4 -19 15 -30 16 -63 9 -51 -12 -52
-12 -32 -42 37 -57 153 -79 224 -42 31 16 32 16 32 -4 0 -18 6 -20 65 -20 49
0 65 3 65 14 0 8 -7 17 -16 20 -14 5 -16 17 -10 74 24 258 17 299 -56 332 -48
22 -141 25 -218 8z"/>
</g>
</svg>
